<?xml version="1.0" encoding="utf-8"?>
<!-- Generator: Adobe Illustrator 23.1.1, SVG Export Plug-In . SVG Version: 6.00 Build 0)  -->
<svg version="1.1" id="Calque_1" xmlns="http://www.w3.org/2000/svg" xmlns:xlink="http://www.w3.org/1999/xlink" x="0px" y="0px"
	 viewBox="0 0 30 30" style="enable-background:new 0 0 30 30;" xml:space="preserve">
<style type="text/css">
	.st0{fill:#BE0100;}
</style>
<g>
	<path class="st0" d="M26.8,7.3c-2.3-2.6-5.4-4.1-8.9-4.3c-2.6-0.2-5.1,0.4-7.3,1.7L7.7,0C6.8,0.6,5.9,1.2,5,2
		C3.4,3.5,2.2,5.3,1.4,7.2l4.5,2.2C5.7,9.7,5.5,10,5.4,10.4L1,8.2C0,11-0.3,14.1,0.3,17l3.9-0.5c0,0.4,0,0.7,0.1,1.1L0.5,18
		c0.6,2.4,1.6,4.6,3.2,6.6c0.4,0.5,0.9,1,1.4,1.4l2.1-1.9c0.1,0.1,0.2,0.2,0.2,0.3c0.1,0.2,0.3,0.3,0.5,0.5l-2,1.9
		c1.3,1,2.6,1.8,4.1,2.3l0.9-1.9c0.3,0.2,0.6,0.3,0.9,0.5l-0.9,1.8c1.5,0.4,3,0.6,4.5,0.6l0.4-1.3c0.2,0,0.4,0,0.5,0.1
		c0.3,0,0.5,0,0.8,0c3.2,0,6.2-1.1,8.5-3.2C31,20.8,31.5,12.6,26.8,7.3z M25,24.8c-2.4,2.1-5.5,3.2-8.6,3c-3.2-0.2-6.1-1.6-8.2-4
		c-2.1-2.4-3.2-5.5-3-8.6c0.2-3.2,1.6-6.1,4-8.2c2.2-1.9,5-3,7.9-3c0.2,0,0.5,0,0.8,0c3.2,0.2,6.1,1.6,8.2,4
		C30.4,12.9,29.9,20.4,25,24.8z"/>
	<polygon class="st0" points="11.9,7.8 11.5,8 15.7,17.3 17.8,17 18.9,15.3 12.3,7.5 	"/>
</g>
</svg>
